<svg width="20" height="20" viewBox="0 0 20 20" fill="none" xmlns="http://www.w3.org/2000/svg">
<path fill-rule="evenodd" clip-rule="evenodd" d="M5.83334 15.8333C5.37418 15.8333 5.00001 15.4592 5.00001 15C5.00001 14.5408 5.37418 14.1667 5.83334 14.1667H15V15.8333H5.83334ZM5.83334 4.16667H15V12.5H5.83334C5.53918 12.5 5.26168 12.56 5.00001 12.6533V5C5.00001 4.54083 5.37418 4.16667 5.83334 4.16667ZM15.8333 2.5H5.83334C4.45501 2.5 3.33334 3.62167 3.33334 5V15C3.33334 16.3783 4.45501 17.5 5.83334 17.5H15H15.8333C16.2933 17.5 16.6667 17.1267 16.6667 16.6667V15.8333V14.1667V3.33333C16.6667 2.87333 16.2933 2.5 15.8333 2.5Z" fill="#231F20"/>
<mask id="mask0" style="mask-type:alpha" maskUnits="userSpaceOnUse" x="3" y="2" width="14" height="16">
<path fill-rule="evenodd" clip-rule="evenodd" d="M5.83334 15.8333C5.37418 15.8333 5.00001 15.4592 5.00001 15C5.00001 14.5408 5.37418 14.1667 5.83334 14.1667H15V15.8333H5.83334ZM5.83334 4.16667H15V12.5H5.83334C5.53918 12.5 5.26168 12.56 5.00001 12.6533V5C5.00001 4.54083 5.37418 4.16667 5.83334 4.16667ZM15.8333 2.5H5.83334C4.45501 2.5 3.33334 3.62167 3.33334 5V15C3.33334 16.3783 4.45501 17.5 5.83334 17.5H15H15.8333C16.2933 17.5 16.6667 17.1267 16.6667 16.6667V15.8333V14.1667V3.33333C16.6667 2.87333 16.2933 2.5 15.8333 2.5Z" fill="white"/>
</mask>
<g mask="url(#mask0)">
<rect width="20" height="20" fill="#999BAE"/>
</g>
</svg>
