<svg width="250" height="250" viewBox="0 0 250 250" fill="none" xmlns="http://www.w3.org/2000/svg">
<path d="M67.5807 125.256L0 246.252C21.5845 255.245 47.5823 247.494 57.9953 228.975L90.4754 169.986C92.7511 165.963 98.7506 165.43 102.061 168.329L94.2682 154.425C87.8549 143.124 78.7522 133.184 67.5807 125.256Z" fill="url(#paint0_linear_536_78)"/>
<path d="M245.635 126.913L212.19 67.6279C197.363 76.2071 185.364 88.0405 177.503 101.886L171.917 111.766C175.917 106.086 185.916 106.323 189.364 112.476L225.361 176.791C247.083 167.856 256.117 145.491 245.635 126.913Z" fill="url(#paint1_linear_536_78)"/>
<path d="M82.9585 93.661C87.0272 95.6135 91.7165 96.6785 96.6816 96.6785C101.854 96.6785 106.75 95.4951 110.956 93.3651C119.369 89.1643 125.024 81.3543 125.024 72.3609C125.024 58.9301 112.335 48.1025 96.7505 48.1025C81.1656 48.1025 68.477 58.9892 68.477 72.3609C68.339 81.5909 74.2696 89.5193 82.9585 93.661Z" fill="url(#paint2_linear_536_78)"/>
<path d="M180.675 48.5168C188.192 48.5168 195.088 45.9726 200.122 41.8901C205.569 37.4526 208.948 31.1809 208.948 24.2584C208.948 10.8275 196.26 0 180.675 0C165.021 0 152.401 10.8867 152.401 24.2584C152.401 31.0626 155.642 37.2159 160.883 41.5942C165.986 45.8543 172.951 48.5168 180.675 48.5168Z" fill="url(#paint3_linear_536_78)"/>
<path d="M200.122 46.2089C195.019 50.3506 188.192 52.8356 180.675 52.8356C172.951 52.8356 165.986 50.1731 160.883 45.9131L117.99 120.108C114.335 126.498 115.784 106.322 112.198 99.9324L110.956 97.7432C110.956 97.7432 110.887 97.7432 110.887 97.8024L137.437 142C140.609 147.562 149.022 148.331 153.574 144.189L171.572 112.535C171.71 112.298 171.848 112.062 172.055 111.825L177.641 101.944C185.502 88.0398 198.673 75.0231 223.499 87.5073L200.122 46.2089Z" fill="url(#paint4_linear_536_78)"/>
<path d="M137.368 142L110.819 97.8027C106.681 99.8736 101.785 101.057 96.6129 101.057C91.6478 101.057 86.9585 99.9327 82.8899 98.0394L56.2024 145.373C78.8902 127.741 87.855 143.124 94.1993 154.425L102.061 168.27C102.612 168.744 103.026 169.276 103.44 169.927L112.198 185.37C115.853 191.76 126.473 191.76 130.127 185.37L153.505 144.19C148.953 148.331 140.54 147.562 137.368 142Z" fill="url(#paint5_linear_536_78)"/>
<defs>
<linearGradient id="paint0_linear_536_78" x1="-43.2697" y1="371.939" x2="58.6798" y2="128.502" gradientUnits="userSpaceOnUse">
<stop offset="0.5721" stop-color="#009FE3"/>
<stop offset="0.7353" stop-color="#136FB7"/>
<stop offset="0.8724" stop-color="#224B96"/>
</linearGradient>
<linearGradient id="paint1_linear_536_78" x1="356.012" y1="350.092" x2="222.837" y2="62.7439" gradientUnits="userSpaceOnUse">
<stop offset="0.5721" stop-color="#F49D1E"/>
<stop offset="0.686" stop-color="#F0851D"/>
<stop offset="0.8724" stop-color="#EA611C"/>
</linearGradient>
<linearGradient id="paint2_linear_536_78" x1="68.3574" y1="72.4312" x2="124.971" y2="72.4312" gradientUnits="userSpaceOnUse">
<stop offset="0.056244" stop-color="#009FE3"/>
<stop offset="0.9995" stop-color="#224B96"/>
</linearGradient>
<linearGradient id="paint3_linear_536_78" x1="152.365" y1="24.2397" x2="208.978" y2="24.2397" gradientUnits="userSpaceOnUse">
<stop offset="0.056244" stop-color="#F49D1E"/>
<stop offset="0.9995" stop-color="#EA611C"/>
</linearGradient>
<linearGradient id="paint4_linear_536_78" x1="112.762" y1="110.664" x2="154.421" y2="91.3032" gradientUnits="userSpaceOnUse">
<stop stop-color="#EA611C"/>
<stop offset="0.368" stop-color="#EF7D1D"/>
<stop offset="0.7568" stop-color="#F3941E"/>
<stop offset="1" stop-color="#F49D1E"/>
</linearGradient>
<linearGradient id="paint5_linear_536_78" x1="56.2338" y1="143.976" x2="223.433" y2="143.976" gradientUnits="userSpaceOnUse">
<stop offset="0.056244" stop-color="#009FE3"/>
<stop offset="0.4844" stop-color="#0F74BB"/>
<stop offset="0.9723" stop-color="#009FE3"/>
</linearGradient>
</defs>
</svg>
